<?xml version="1.0" encoding="UTF-8"?>
<svg width="23px" height="12px" viewBox="0 0 55 35" version="1.1" xmlns="http://www.w3.org/2000/svg" xmlns:xlink="http://www.w3.org/1999/xlink">
    <!-- Generator: Sketch 42 (36781) - http://www.bohemiancoding.com/sketch -->
    <title>noun_414693_cc</title>
    <desc>Created with Sketch.</desc>
    <defs></defs>
    <g id="Page-1" stroke="none" stroke-width="1" fill="none" fill-rule="evenodd">
        <g id="noun_414693_cc" transform="translate(0.000000, -1.000000)" fill-rule="nonzero" fill="#FFFFFF">
            <g id="Group">
                <path d="M24,3.489 L24,16.135 L24,20.135 L24,33.205 C24,34.305 23.418,34.727 22.428,34.249 L12.049,29.04 C11.058,28.562 9.348,28 8.248,28 L4.11,28 C3.01,28 0.664,27.596 0.35,26.894 C0.035,26.191 -3.55271368e-15,24.887 -3.55271368e-15,23.787 L-3.55271368e-15,13.102 C-3.55271368e-15,12.002 0.353,9.66 1.055,9.346 C1.757,9.032 3.009,9 4.109,9 L6.175,9 L8.822,9 C9.177,9 10.284,8.391 11.279,7.922 L22.418,2.454 C23.414,1.985 24,2.389 24,3.489 Z M33.254,8.794 C32.65,8.229 31.7,8.26 31.133,8.866 C30.568,9.471 30.6,10.42 31.205,10.986 C31.243,11.021 34.962,14.549 34.903,18.96 C34.871,21.413 33.636,23.735 31.235,25.861 C30.614,26.41 30.557,27.358 31.106,27.978 C31.402,28.313 31.815,28.484 32.23,28.484 C32.583,28.484 32.938,28.36 33.223,28.107 C36.284,25.398 37.858,22.334 37.903,19 C37.98,13.278 33.446,8.975 33.254,8.794 Z M39.652,5.571 C39.047,5.006 38.099,5.038 37.534,5.642 C36.969,6.246 36.999,7.194 37.601,7.761 C37.655,7.811 42.97,12.886 42.875,19.183 C42.821,22.72 41.058,26.051 37.633,29.083 C37.013,29.632 36.955,30.58 37.504,31.2 C37.801,31.535 38.213,31.706 38.628,31.706 C38.981,31.706 39.336,31.582 39.621,31.329 C43.711,27.708 45.815,23.629 45.875,19.204 C45.979,11.572 39.91,5.813 39.652,5.571 Z M45.815,1.379 C45.211,0.814 44.26,0.845 43.695,1.451 C43.13,2.056 43.161,3.005 43.766,3.571 C43.84,3.64 51.204,10.624 51.086,19.43 C51.019,24.394 48.566,29.052 43.796,33.275 C43.176,33.824 43.118,34.772 43.667,35.392 C43.963,35.727 44.376,35.898 44.791,35.898 C45.144,35.898 45.499,35.774 45.784,35.521 C51.214,30.714 54.007,25.314 54.085,19.47 C54.223,9.353 46.158,1.7 45.815,1.379 Z" id="Shape"></path>
            </g>
        </g>
    </g>
</svg>
