<?xml version="1.0" encoding="UTF-8"?>
<svg width="23px" height="12px" viewBox="0 0 66 35" version="1.1" xmlns="http://www.w3.org/2000/svg" xmlns:xlink="http://www.w3.org/1999/xlink">
    <!-- Generator: Sketch 42 (36781) - http://www.bohemiancoding.com/sketch -->
    <title>noun_414697_cc</title>
    <desc>Created with Sketch.</desc>
    <defs></defs>
    <g id="Page-1" stroke="none" stroke-width="1" fill="none" fill-rule="evenodd">
        <g id="noun_414697_cc" transform="translate(0.000000, -1.000000)" fill-rule="nonzero" fill="#FFFFFF">
            <g id="Group">
                <path d="M64.249,31.27 C64.051,31.27 63.849,31.231 63.654,31.147 L1.154,4.084 C0.394,3.755 0.045,2.872 0.374,2.111 C0.704,1.352 1.586,1.003 2.347,1.331 L64.847,28.393 C65.608,28.723 65.957,29.606 65.628,30.366 C65.382,30.932 64.829,31.27 64.249,31.27 Z M35.205,10.986 C34.6,10.42 34.568,9.471 35.133,8.866 C35.7,8.26 36.651,8.229 37.254,8.794 C37.421,8.952 40.875,12.233 41.717,16.853 L38.134,15.302 C37.059,12.75 35.232,11.01 35.205,10.986 Z M41.602,7.761 C40.999,7.194 40.969,6.246 41.535,5.642 C42.101,5.038 43.048,5.006 43.653,5.571 C43.911,5.813 49.979,11.572 49.876,19.204 C49.871,19.59 49.83,19.971 49.794,20.35 L46.872,19.085 C46.91,12.833 41.654,7.811 41.602,7.761 Z M47.766,3.571 C47.162,3.005 47.13,2.056 47.696,1.451 C48.259,0.845 49.211,0.814 49.815,1.379 C50.159,1.7 58.223,9.353 58.086,19.47 C58.065,20.908 57.881,22.318 57.534,23.701 L54.712,22.478 C54.933,21.474 55.073,20.46 55.087,19.43 C55.204,10.624 47.84,3.64 47.766,3.571 Z M18.002,6.585 L26.418,2.454 C27.414,1.985 28,2.389 28,3.489 L28,10.914 L18.002,6.585 Z M28,17.232 L28,20.135 L28,33.205 C28,34.305 27.418,34.726 26.428,34.249 L16.049,29.04 C15.058,28.562 13.348,28 12.248,28 L8.11,28 C7.01,28 4.664,27.596 4.35,26.895 C4.035,26.191 4,24.887 4,23.787 L4,13.102 C4,12.002 4.353,9.66 5.055,9.346 C5.757,9.032 7.009,9 8.109,9 L8.989,9 L28,17.232 Z M48.057,25.915 C47.018,27.812 45.548,29.623 43.621,31.329 C43.336,31.582 42.98,31.706 42.628,31.706 C42.213,31.706 41.801,31.535 41.504,31.2 C40.955,30.58 41.014,29.632 41.633,29.083 C43.209,27.687 44.416,26.227 45.283,24.715 L48.057,25.915 Z M55.289,29.046 C53.937,31.305 52.103,33.467 49.784,35.522 C49.499,35.774 49.144,35.899 48.791,35.899 C48.376,35.899 47.963,35.727 47.667,35.393 C47.118,34.772 47.176,33.825 47.796,33.276 C49.764,31.534 51.313,29.714 52.488,27.835 L55.289,29.046 Z M41.09,22.898 C40.332,24.748 39.048,26.492 37.223,28.107 C36.938,28.359 36.584,28.484 36.231,28.484 C35.815,28.484 35.402,28.312 35.106,27.978 C34.557,27.357 34.614,26.41 35.235,25.861 C36.721,24.546 37.756,23.156 38.34,21.708 L41.09,22.898 Z" id="Shape"></path>
            </g>
        </g>
    </g>
</svg>
